HIERARCHY
ROOT Root
{
  OFFSET 0.0 0.0 0.0
  CHANNELS 6 Xposition Yposition Zposition Zrotation Yrotation Xrotation
  JOINT Hips
  {
    OFFSET 0.0 100.0 0.0
    CHANNELS 6 Xposition Yposition Zposition Zrotation Yrotation Xrotation
    JOINT Spine1
    {
      OFFSET -0.013727 5.003763 -0.053727
      CHANNELS 3 Zrotation Yrotation Xrotation
      JOINT Spine2
      {
        OFFSET -0.0 7.125301 -0.029825
        CHANNELS 3 Zrotation Yrotation Xrotation
        JOINT Chest
        {
          OFFSET -1e-06 7.550063 -0.815971
          CHANNELS 3 Zrotation Yrotation Xrotation
          JOINT Neck1
          {
            OFFSET -0.181677 26.311295 -0.553348
            CHANNELS 3 Zrotation Yrotation Xrotation
            JOINT Neck2
            {
              OFFSET -3e-06 7.709397 2.302585
              CHANNELS 3 Zrotation Yrotation Xrotation
              JOINT Head
              {
                OFFSET -5e-06 6.128916 1.953709
                CHANNELS 3 Zrotation Yrotation Xrotation
                JOINT HeadEnd
                {
                  OFFSET 0.003598 16.065403 -1.835379
                  CHANNELS 3 Zrotation Yrotation Xrotation
                }
                JOINT Jaw
                {
                  OFFSET 0.002637 0.475592 3.094941
                  CHANNELS 3 Zrotation Yrotation Xrotation
                }
                JOINT LeftEye
                {
                  OFFSET 3.206381 5.380205 7.586883
                  CHANNELS 3 Zrotation Yrotation Xrotation
                }
                JOINT RightEye
                {
                  OFFSET -3.22244 5.361869 7.558234
                  CHANNELS 3 Zrotation Yrotation Xrotation
                }
              }
            }
          }
          JOINT LeftShoulder
          {
            OFFSET 1.621652 23.237164 5.113413
            CHANNELS 3 Zrotation Yrotation Xrotation
            JOINT LeftArm
            {
              OFFSET 14.919846 2e-06 -5.502326
              CHANNELS 3 Zrotation Yrotation Xrotation
              JOINT LeftForeArm
              {
                OFFSET 28.739307 0.0 -0.002588
                CHANNELS 3 Zrotation Yrotation Xrotation
                JOINT LeftHand
                {
                  OFFSET 27.093981 -1e-06 0.002609
                  CHANNELS 3 Zrotation Yrotation Xrotation
                  JOINT LeftHandThumb1
                  {
                    OFFSET 2.276482 -1.392045 3.191413
                    CHANNELS 3 Zrotation Yrotation Xrotation
                    JOINT LeftHandThumb2
                    {
                      OFFSET 4.012836 -1.828127 1.641654
                      CHANNELS 3 Zrotation Yrotation Xrotation
                      JOINT LeftHandThumb3
                      {
                        OFFSET 2.798515 0.0 -3e-06
                        CHANNELS 3 Zrotation Yrotation Xrotation
                        JOINT LeftHandThumbEnd
                        {
                          OFFSET 3.180793 -4e-06 4e-06
                          CHANNELS 3 Zrotation Yrotation Xrotation
                        }
                      }
                    }
                  }
                  JOINT LeftHandIndex1
                  {
                    OFFSET 3.247555 -0.531998 2.296169
                    CHANNELS 3 Zrotation Yrotation Xrotation
                    JOINT LeftHandIndex2
                    {
                      OFFSET 6.364578 0.01206 0.1786
                      CHANNELS 3 Zrotation Yrotation Xrotation
                      JOINT LeftHandIndex3
                      {
                        OFFSET 3.662364 0.0 0.0
                        CHANNELS 3 Zrotation Yrotation Xrotation
                        JOINT LeftHandIndex4
                        {
                          OFFSET 2.329242 4e-06 4e-06
                          CHANNELS 3 Zrotation Yrotation Xrotation
                          JOINT LeftHandIndexEnd
                          {
                            OFFSET 2.759615 -0.180537 -0.113024
                            CHANNELS 3 Zrotation Yrotation Xrotation
                          }
                        }
                      }
                    }
                  }
                  JOINT LeftHandMiddle1
                  {
                    OFFSET 3.163495 0.240981 1.000332
                    CHANNELS 3 Zrotation Yrotation Xrotation
                    JOINT LeftHandMiddle2
                    {
                      OFFSET 6.19078 -0.259278 -1.002548
                      CHANNELS 3 Zrotation Yrotation Xrotation
                      JOINT LeftHandMiddle3
                      {
                        OFFSET 4.35652 -4e-06 -1e-06
                        CHANNELS 3 Zrotation Yrotation Xrotation
                        JOINT LeftHandMiddle4
                        {
                          OFFSET 2.996877 -8e-06 0.0
                          CHANNELS 3 Zrotation Yrotation Xrotation
                          JOINT LeftHandMiddleEnd
                          {
                            OFFSET 2.304287 -0.294569 -0.031741
                            CHANNELS 3 Zrotation Yrotation Xrotation
                          }
                        }
                      }
                    }
                  }
                  JOINT LeftHandRing1
                  {
                    OFFSET 2.882643 -0.053652 -0.322543
                    CHANNELS 3 Zrotation Yrotation Xrotation
                    JOINT LeftHandRing2
                    {
                      OFFSET 5.854541 -0.486202 -1.373841
                      CHANNELS 3 Zrotation Yrotation Xrotation
                      JOINT LeftHandRing3
                      {
                        OFFSET 4.350578 0.0 3e-06
                        CHANNELS 3 Zrotation Yrotation Xrotation
                        JOINT LeftHandRing4
                        {
                          OFFSET 2.651321 7e-06 2e-06
                          CHANNELS 3 Zrotation Yrotation Xrotation
                          JOINT LeftHandRingEnd
                          {
                            OFFSET 1.936105 0.077687 -7.1e-05
                            CHANNELS 3 Zrotation Yrotation Xrotation
                          }
                        }
                      }
                    }
                  }
                  JOINT LeftHandPinky1
                  {
                    OFFSET 2.8655 -0.310005 -1.600378
                    CHANNELS 3 Zrotation Yrotation Xrotation
                    JOINT LeftHandPinky2
                    {
                      OFFSET 5.087849 -1.331141 -1.77123
                      CHANNELS 3 Zrotation Yrotation Xrotation
                      JOINT LeftHandPinky3
                      {
                        OFFSET 3.070974 4e-06 0.0
                        CHANNELS 3 Zrotation Yrotation Xrotation
                        JOINT LeftHandPinky4
                        {
                          OFFSET 1.549672 0.0 1e-06
                          CHANNELS 3 Zrotation Yrotation Xrotation
                          JOINT LeftHandPinkyEnd
                          {
                            OFFSET 1.944893 -0.157802 0.057219
                            CHANNELS 3 Zrotation Yrotation Xrotation
                          }
                        }
                      }
                    }
                  }
                }
              }
            }
          }
          JOINT RightShoulder
          {
            OFFSET -1.380118 23.180309 5.214158
            CHANNELS 3 Zrotation Yrotation Xrotation
            JOINT RightArm
            {
              OFFSET -15.037196 1.2e-05 -5.545604
              CHANNELS 3 Zrotation Yrotation Xrotation
              JOINT RightForeArm
              {
                OFFSET -28.736639 2e-06 -0.002597
                CHANNELS 3 Zrotation Yrotation Xrotation
                JOINT RightHand
                {
                  OFFSET -27.133619 -0.0 0.002613
                  CHANNELS 3 Zrotation Yrotation Xrotation
                  JOINT RightHandThumb1
                  {
                    OFFSET -2.274032 -1.383988 3.163127
                    CHANNELS 3 Zrotation Yrotation Xrotation
                    JOINT RightHandThumb2
                    {
                      OFFSET -4.011429 -1.827466 1.640914
                      CHANNELS 3 Zrotation Yrotation Xrotation
                      JOINT RightHandThumb3
                      {
                        OFFSET -2.794935 -4e-06 -3e-06
                        CHANNELS 3 Zrotation Yrotation Xrotation
                        JOINT RightHandThumbEnd
                        {
                          OFFSET -3.183852 4e-06 1e-06
                          CHANNELS 3 Zrotation Yrotation Xrotation
                        }
                      }
                    }
                  }
                  JOINT RightHandIndex1
                  {
                    OFFSET -3.253266 -0.520057 2.282866
                    CHANNELS 3 Zrotation Yrotation Xrotation
                    JOINT RightHandIndex2
                    {
                      OFFSET -6.341917 0.012471 0.178266
                      CHANNELS 3 Zrotation Yrotation Xrotation
                      JOINT RightHandIndex3
                      {
                        OFFSET -3.654871 -8e-06 -0.0
                        CHANNELS 3 Zrotation Yrotation Xrotation
                        JOINT RightHandIndex4
                        {
                          OFFSET -2.327586 0.0 1e-06
                          CHANNELS 3 Zrotation Yrotation Xrotation
                          JOINT RightHandIndexEnd
                          {
                            OFFSET -2.76179 -0.180656 -0.113078
                            CHANNELS 3 Zrotation Yrotation Xrotation
                          }
                        }
                      }
                    }
                  }
                  JOINT RightHandMiddle1
                  {
                    OFFSET -3.168106 0.246593 1.00103
                    CHANNELS 3 Zrotation Yrotation Xrotation
                    JOINT RightHandMiddle2
                    {
                      OFFSET -6.180828 -0.258836 -1.000895
                      CHANNELS 3 Zrotation Yrotation Xrotation
                      JOINT RightHandMiddle3
                      {
                        OFFSET -4.348901 0.0 -0.0
                        CHANNELS 3 Zrotation Yrotation Xrotation
                        JOINT RightHandMiddle4
                        {
                          OFFSET -3.00024 -4e-06 -2e-06
                          CHANNELS 3 Zrotation Yrotation Xrotation
                          JOINT RightHandMiddleEnd
                          {
                            OFFSET -2.30252 -0.29437 -0.031706
                            CHANNELS 3 Zrotation Yrotation Xrotation
                          }
                        }
                      }
                    }
                  }
                  JOINT RightHandRing1
                  {
                    OFFSET -2.88569 -0.067952 -0.308858
                    CHANNELS 3 Zrotation Yrotation Xrotation
                    JOINT RightHandRing2
                    {
                      OFFSET -5.854198 -0.48613 -1.373731
                      CHANNELS 3 Zrotation Yrotation Xrotation
                      JOINT RightHandRing3
                      {
                        OFFSET -4.33881 -4e-06 -0.0
                        CHANNELS 3 Zrotation Yrotation Xrotation
                        JOINT RightHandRing4
                        {
                          OFFSET -2.654903 -4e-06 4e-06
                          CHANNELS 3 Zrotation Yrotation Xrotation
                          JOINT RightHandRingEnd
                          {
                            OFFSET -1.933568 0.077527 -5.2e-05
                            CHANNELS 3 Zrotation Yrotation Xrotation
                          }
                        }
                      }
                    }
                  }
                  JOINT RightHandPinky1
                  {
                    OFFSET -2.866425 -0.342796 -1.584145
                    CHANNELS 3 Zrotation Yrotation Xrotation
                    JOINT RightHandPinky2
                    {
                      OFFSET -5.091371 -1.332055 -1.772385
                      CHANNELS 3 Zrotation Yrotation Xrotation
                      JOINT RightHandPinky3
                      {
                        OFFSET -3.062664 -4e-06 1e-06
                        CHANNELS 3 Zrotation Yrotation Xrotation
                        JOINT RightHandPinky4
                        {
                          OFFSET -1.546529 4e-06 -2e-06
                          CHANNELS 3 Zrotation Yrotation Xrotation
                          JOINT RightHandPinkyEnd
                          {
                            OFFSET -1.945119 -0.157718 0.057211
                            CHANNELS 3 Zrotation Yrotation Xrotation
                          }
                        }
                      }
                    }
                  }
                }
              }
            }
          }
        }
      }
    }
    JOINT LeftLeg
    {
      OFFSET 10.043214 -8.434526 2.595655
      CHANNELS 3 Zrotation Yrotation Xrotation
      JOINT LeftShin
      {
        OFFSET -1e-06 -43.221752 -0.802913
        CHANNELS 3 Zrotation Yrotation Xrotation
        JOINT LeftFoot
        {
          OFFSET 1e-06 -42.155094 -3.481523
          CHANNELS 3 Zrotation Yrotation Xrotation
          JOINT LeftToeBase
          {
            OFFSET 0.0 -5.059472 13.231529
            CHANNELS 3 Zrotation Yrotation Xrotation
            JOINT LeftToeEnd
            {
              OFFSET -0.009607 -1.647619 6.513017
              CHANNELS 3 Zrotation Yrotation Xrotation
            }
          }
        }
      }
    }
    JOINT RightLeg
    {
      OFFSET -10.047278 -8.29526 2.620317
      CHANNELS 3 Zrotation Yrotation Xrotation
      JOINT RightShin
      {
        OFFSET 1e-06 -43.362206 -0.805556
        CHANNELS 3 Zrotation Yrotation Xrotation
        JOINT RightFoot
        {
          OFFSET 2e-06 -42.117393 -3.478398
          CHANNELS 3 Zrotation Yrotation Xrotation
          JOINT RightToeBase
          {
            OFFSET -0.0 -5.079609 13.284196
            CHANNELS 3 Zrotation Yrotation Xrotation
            JOINT RightToeEnd
            {
              OFFSET 0.009532 -1.634378 6.460591
              CHANNELS 3 Zrotation Yrotation Xrotation
            }
          }
        }
      }
    }
  }
}
MOTION
Frames: 4
Frame Time: 0.03333333333333333
-0.483168 0.0 0.490481 0.0 0.383337 0.0 0.0 100.168121 0.0 0.332528 -0.004746 0.823497 0.311588 -0.083714 -3.812092 -0.655434 0.352069 -6.208146 -0.781311 -2.170839 11.417424 1.600606 1.938212 8.749277 -1.07057 -1.774916 -3.581792 1.083968 -3.662375 -5.523794 7.7e-05 -2.3e-05 6e-06 0.016926 4.5e-05 0.016022 0.774444 -3.720047 -10.603465 -0.740449 3.724416 -10.572553 -16.144058 -5.766906 13.439961 -57.42778 -0.188285 12.717607 0.84366 -32.366131 -0.046409 -3.517468 -3.390037 10.805519 -5.882111 9.861292 0.702589 -10.936878 -0.360574 7.156209 0.0 8.774831 0.0 -15.986622 18.354506 6.1733 -1.844034 2.498506 -2.50728 -10.163608 4.678948 4.621109 -20.976038 -3e-06 -1e-06 -21.226301 2.451699 -3.594003 1e-06 -4e-06 1e-06 -1.362683 2.240801 -0.746324 -21.334929 0.584912 3.00832 -13.821221 -1e-06 -1e-06 -23.887188 -0.249079 -0.839488 -60.744808 2.762443 -1.528381 -0.294025 1.679688 0.833255 -14.21822 0.093216 1.300581 -34.212074 -0.287563 0.967164 -20.03323 0.964536 1.212841 0.0 -0.0 1e-06 -3.440391 0.788233 0.501655 -15.928196 -3.16731 2.999708 -6.338831 -1e-06 -1e-06 -18.123459 3.648186 -4.905676 -3e-06 1e-06 -1e-06 22.182684 9.92211 16.972647 46.356934 16.548349 14.922359 -179.704025 65.958961 179.990219 -17.09823 -3.576595 -13.060555 2.243543 -5.255041 -3.180161 14.282898 -0.826594 6.952511 -1e-06 -12.690616 -3e-06 15.422157 -17.431204 3.168609 1.665666 -1.955924 -2.878301 4.727801 -4.170589 4.993929 11.020535 2e-06 1e-06 12.109058 -3.73572 -2.866786 0.0 -0.0 -0.0 1.291985 -1.928553 -1.49809 14.800139 0.56747 3.865613 14.242581 -1.341739 -6.660661 19.631979 0.143924 -0.648242 50.292374 -0.760057 -5.70771 0.353028 -1.511152 -0.03194 20.222801 3.684314 2.316637 18.787283 3e-06 3e-06 10.751634 -0.47987 1.39791 1e-06 -0.0 -0.0 3.27381 0.305947 -0.580111 21.486826 11.830384 2.266143 8.16293 2e-06 2e-06 18.399092 -3.79899 -4.940575 4e-06 -0.0 -2e-06 6.56034 7.213279 -0.324099 0.02093 -0.033943 3.000981 -8.036348 -3.055021 -1.987958 1.633893 -1.995598 -0.600033 0.0 -0.0 2e-06 -3.676614 -9.608191 -4.226697 -0.005711 0.012038 9.921631 7.514674 -0.925784 -6.006416 -1.392546 0.969034 -0.961503 -0.0 0.0 -1e-06 
-0.499197 0.0 0.50971 0.0 0.955253 0.0 0.0 100.185104 0.0 0.355922 -0.004924 0.805087 0.345976 -0.070398 -3.811434 -0.61731 0.461046 -6.235272 -0.853127 -2.120288 11.539103 1.510192 2.015238 9.149513 -1.08477 -1.940327 -3.593449 0.912506 -3.765521 -5.357633 7.7e-05 -2.3e-05 6e-06 0.010513 0.030616 0.010836 0.764704 -3.68852 -10.594896 -0.74357 3.752763 -10.569363 -16.161097 -5.595742 13.432293 -57.454002 -0.350435 12.692296 0.613684 -32.507858 -0.047544 -3.340419 -3.374645 11.232611 -5.882108 9.861288 0.70259 -10.936878 -0.360576 7.15621 1e-06 8.774828 -2e-06 -15.990204 18.288622 6.119241 -1.844033 2.498505 -2.507277 -10.163604 4.678945 4.621113 -20.976034 -5e-06 6e-06 -21.226295 2.451697 -3.593997 1e-06 -3e-06 1e-06 -1.362682 2.240798 -0.746324 -21.334929 0.584907 3.008327 -13.82122 -4e-06 4e-06 -23.887182 -0.249079 -0.839478 -60.680706 2.739856 -1.389805 -0.294025 1.679687 0.833257 -14.218215 0.093213 1.300583 -34.212067 -0.287564 0.967178 -20.033226 0.964537 1.212847 1e-06 -0.0 1e-06 -3.440391 0.788232 0.501656 -15.928194 -3.167312 2.999711 -6.338829 -2e-06 0.0 -18.123457 3.648185 -4.90567 -3e-06 1e-06 -1e-06 22.00388 10.039301 17.309895 46.447399 16.362188 14.675299 179.838364 67.045319 179.507828 -17.441195 -2.957421 -12.969823 2.243541 -5.255038 -3.180157 14.282889 -0.826593 6.952502 -3e-06 -12.690607 0.0 15.400043 -17.478739 3.121349 1.665666 -1.955922 -2.878299 4.727801 -4.170587 4.993923 11.020525 3e-06 -0.0 12.109054 -3.735716 -2.866784 1e-06 0.0 -0.0 1.291987 -1.928549 -1.498089 14.800129 0.567469 3.865608 14.242574 -1.341736 -6.660657 19.631969 0.143926 -0.648244 50.186165 -0.763577 -5.688815 0.35303 -1.51115 -0.03194 20.22279 3.68431 2.316629 18.78727 5e-06 -1e-06 10.751627 -0.479868 1.397907 0.0 -0.0 -0.0 3.273806 0.305947 -0.580111 21.486814 11.830377 2.266133 8.162926 2e-06 -1e-06 18.39908 -3.798986 -4.940577 5e-06 0.0 -3e-06 6.542031 6.890539 -0.509713 0.009969 -0.088046 3.185898 -8.058434 -3.221487 -1.909943 1.635743 -2.016861 -0.595882 0.0 -0.0 2e-06 -3.706171 -9.906632 -3.944555 -0.007726 0.007113 9.615427 7.628842 -1.185652 -5.977155 -1.398733 0.946819 -0.93066 0.0 0.0 -1e-06 
-0.496366 0.0 0.499521 0.0 1.766782 0.0 0.0 100.194359 0.0 0.395505 -0.005304 0.787148 0.383623 -0.047094 -3.824496 -0.596381 0.560847 -6.26319 -0.894667 -2.004515 11.692646 1.488827 2.063826 9.717358 -1.12668 -2.140773 -3.627944 0.712602 -3.902638 -5.090334 7.7e-05 -2.2e-05 6e-06 0.008864 0.03777 0.002944 0.75988 -3.680234 -10.610938 -0.74212 3.757981 -10.585855 -16.123785 -5.348413 13.463094 -57.519928 -0.625688 12.709215 0.378003 -32.631943 -0.031632 -3.149069 -3.402173 11.526496 -5.882111 9.861292 0.702591 -10.93688 -0.360574 7.156209 -0.0 8.774831 -2e-06 -16.024014 18.285891 6.055449 -1.844034 2.498505 -2.507281 -10.163608 4.678949 4.621113 -20.97604 -3e-06 2e-06 -21.226303 2.4517 -3.594002 0.0 -4e-06 1e-06 -1.362684 2.240801 -0.746324 -21.33493 0.584912 3.008325 -13.821224 -2e-06 1e-06 -23.887192 -0.24908 -0.839486 -60.592316 2.762796 -1.386224 -0.294026 1.679688 0.833257 -14.218219 0.093216 1.300577 -34.212074 -0.287564 0.967166 -20.033226 0.964536 1.212842 1e-06 1e-06 1e-06 -3.440391 0.788233 0.501653 -15.928196 -3.16731 2.999707 -6.33883 -2e-06 0.0 -18.123459 3.648189 -4.905673 -3e-06 0.0 -0.0 21.788185 10.261998 17.648077 46.58847 16.257217 14.398505 179.330444 68.627129 179.017548 -17.844463 -2.161996 -12.492872 2.243541 -5.255038 -3.180158 14.282887 -0.826593 6.952502 0.0 -12.690605 -3e-06 15.37367 -17.458048 3.071283 1.665666 -1.955922 -2.878298 4.727798 -4.170588 4.993923 11.020521 2e-06 -1e-06 12.109048 -3.735717 -2.866785 0.0 -0.0 0.0 1.291985 -1.92855 -1.498089 14.800122 0.567469 3.865609 14.242566 -1.341739 -6.660658 19.631958 0.143926 -0.648244 50.160431 -0.762829 -5.68996 0.353028 -1.511152 -0.031941 20.222784 3.684309 2.316632 18.78727 4e-06 -1e-06 10.751624 -0.479868 1.397907 -0.0 -0.0 0.0 3.273806 0.305947 -0.58011 21.486809 11.830377 2.266139 8.162922 2e-06 2e-06 18.399076 -3.798985 -4.940573 4e-06 0.0 -1e-06 6.500237 6.369005 -0.819317 0.005851 -0.125905 3.470713 -8.044883 -3.487231 -1.856119 1.638223 -2.016167 -0.587486 0.0 -0.0 2e-06 -3.777956 -10.455983 -3.685105 -0.005683 -0.001374 9.403727 7.759654 -1.474293 -5.999581 -1.401925 0.938731 -0.876075 -0.0 0.0 -1e-06 
-0.49041 0.0 0.45607 0.0 2.746737 0.0 0.0 100.195824 0.0 0.439648 -0.005692 0.76484 0.420152 -0.018928 -3.823571 -0.580303 0.686963 -6.291015 -0.900523 -1.833363 11.844637 1.494534 2.08358 10.433897 -1.176309 -2.330058 -3.651733 0.555667 -4.053937 -4.802249 7.7e-05 -2.3e-05 6e-06 0.008885 0.035613 -0.004849 0.754693 -3.682258 -10.628264 -0.737008 3.755353 -10.604848 -16.078131 -5.066015 13.518066 -57.583004 -1.000172 12.860699 0.227154 -32.70821 -0.026738 -2.887537 -3.488132 11.680569 -5.882108 9.861288 0.702591 -10.936874 -0.360575 7.156209 1e-06 8.774829 0.0 -16.034061 18.277323 5.989164 -1.844033 2.498505 -2.507279 -10.163602 4.678947 4.621112 -20.97603 -5e-06 3e-06 -21.22629 2.451695 -3.594004 0.0 -5e-06 -0.0 -1.362682 2.240798 -0.746322 -21.334919 0.584908 3.008326 -13.821217 -3e-06 1e-06 -23.887177 -0.24908 -0.839483 -60.490437 2.773756 -1.427452 -0.294024 1.679688 0.833258 -14.218212 0.093213 1.300582 -34.212059 -0.287565 0.967173 -20.033218 0.964536 1.212845 2e-06 1e-06 1e-06 -3.44039 0.788234 0.501654 -15.928192 -3.16731 2.999711 -6.338828 -0.0 1e-06 -18.123457 3.648182 -4.90567 -3e-06 1e-06 -2e-06 21.537466 10.579085 17.96282 46.770641 16.274445 14.158589 179.017944 70.83503 178.741364 -18.232967 -1.189284 -11.790488 2.243542 -5.255039 -3.180159 14.282898 -0.826595 6.952507 -3e-06 -12.69061 0.0 15.347526 -17.419523 3.030696 1.665666 -1.955923 -2.8783 4.7278 -4.17059 4.993926 11.02053 3e-06 -0.0 12.109057 -3.735717 -2.866784 2e-06 0.0 -0.0 1.291988 -1.928551 -1.49809 14.800138 0.567469 3.865609 14.242579 -1.341737 -6.660659 19.631975 0.143925 -0.648244 50.189201 -0.750496 -5.725066 0.353029 -1.51115 -0.031939 20.222803 3.68431 2.316633 18.787285 4e-06 -0.0 10.751633 -0.479869 1.397907 0.0 -0.0 1e-06 3.27381 0.305947 -0.580111 21.486824 11.830379 2.266135 8.16293 3e-06 0.0 18.39909 -3.798985 -4.940577 4e-06 -1e-06 -1e-06 6.448827 5.731402 -1.211656 0.000829 -0.153929 3.799859 -8.066764 -3.835906 -1.810154 1.638512 -2.005782 -0.600182 0.0 -0.0 2e-06 -3.858464 -11.126857 -3.463555 -0.011054 -0.020345 9.294747 7.899608 -1.805502 -6.071875 -1.403631 0.930739 -0.844175 -0.0 0.0 -1e-06 
